<svg xmlns="http://www.w3.org/2000/svg" viewBox="0 0 36 36" height="36" width="36"><title>shadows.svg</title><rect fill="none" x="0" y="0" width="36" height="36"></rect><path fill="#3b3b3b" transform="translate(2 2)" d="M9.000,24.000 L12.000,24.000 L12.000,22.000 L14.000,22.000 L14.000,20.000 L22.000,20.000 L22.000,22.000 L24.000,22.000 L24.000,20.000 L32.000,20.000 L32.000,26.000 L30.000,26.000 L30.000,28.000 L22.000,28.000 L22.000,26.000 L20.000,26.000 L20.000,28.000 L12.000,28.000 L12.000,30.000 L10.000,30.000 L10.000,32.000 L2.000,32.000 L2.000,26.000 L4.000,26.000 L4.000,24.000 L8.000,24.000 L8.000,22.000 L0.000,22.000 L0.000,16.000 L2.000,16.000 L2.000,14.000 L10.000,14.000 L10.000,12.000 L4.000,12.000 L4.000,6.000 L6.000,6.000 L6.000,4.000 L14.000,4.000 L14.000,8.000 L16.000,8.000 L16.000,2.000 L18.000,2.000 L18.000,0.000 L26.000,0.000 L26.000,6.000 L24.000,6.000 L24.000,8.000 L17.000,8.000 L14.000,9.000 L14.000,10.000 L22.000,10.000 L22.000,12.000 L24.000,12.000 L24.000,10.000 L32.000,10.000 L32.000,16.000 L30.000,16.000 L30.000,18.000 L22.000,18.000 L22.000,16.000 L20.000,16.000 L20.000,18.000 L12.000,18.000 L12.000,12.000 L11.000,12.000 L10.000,15.000 L10.000,20.000 L8.000,20.000 L8.000,21.000 L9.000,24.000 Z"></path></svg>