<svg xmlns="http://www.w3.org/2000/svg" viewBox="0 0 34 34" height="34" width="34"><title>buildings.svg</title><rect fill="none" x="0" y="0" width="34" height="34"></rect><path fill="#b5b1b1" transform="translate(2 2)" d="M12.000,10.000 L12.000,4.000 L4.000,4.000 L4.000,10.000 L11.000,10.000 L12.000,11.000 L12.000,16.000 L8.000,16.000 L8.000,14.000 L-0.000,14.000 L-0.000,20.000 L4.000,20.000 L4.000,24.000 L2.000,24.000 L2.000,30.000 L10.000,30.000 L10.000,26.000 C10.000,26.000 10.827,26.000 12.005,26.000 C14.924,26.000 20.000,26.000 20.000,26.000 L20.000,21.000 L22.000,20.000 L22.000,26.000 L30.000,26.000 L30.000,20.000 L12.000,20.000 L12.000,25.000 L10.000,25.000 L10.000,24.000 L5.000,24.000 L5.000,20.000 L8.000,20.000 L8.000,17.000 L13.000,16.000 L30.000,16.000 L30.000,10.000 L22.000,10.000 L22.000,15.000 L20.000,15.000 L20.000,10.000 L24.000,6.000 L24.000,-0.000 L16.000,-0.000 L16.000,6.000 L23.000,6.000 L19.000,10.000 L12.000,10.000 Z"></path></svg>